<?xml version="1.0" encoding="utf-8"?>
<!-- Generator: Adobe Illustrator 24.0.0, SVG Export Plug-In . SVG Version: 6.00 Build 0)  -->
<svg version="1.1" xmlns="http://www.w3.org/2000/svg" xmlns:xlink="http://www.w3.org/1999/xlink" x="0px" y="0px"
	 viewBox="0 0 327 327.1" style="enable-background:new 0 0 327 327.1;" xml:space="preserve">
<style type="text/css">
	.st0{fill:#1D1D1B;}
	.st1{fill:#AAC2D4;}
	.st2{fill:#AAC2D5;}
	.st3{fill:#94A8B8;}
	.st4{fill:#CCDAE5;}
	.st5{fill:#96AABA;}
	.st6{fill:#CBBCAB;}
	.st7{fill:#948A7E;}
	.st8{fill:#595755;}
	.st9{fill:#FEFEFE;}
	.st10{fill:#454342;}
	.st11{fill:#B8B8B8;}
	.st12{fill:#FDFDFD;}
	.st13{fill:#B9B9B9;}
	.st14{fill:#1C1C1A;}
	.st15{fill:#ED2929;stroke:#000000;stroke-width:5;stroke-miterlimit:10;}
	.st16{opacity:0.26;}
	.st17{opacity:0.2;fill:#161616;}
	.st18{fill:#D9D9D9;}
	.st19{fill:#DADADA;}
	.st20{fill:#D0D0D0;}
	.st21{fill:#21211F;}
	.st22{fill:#20201F;}
	.st23{fill:#1F1F1D;}
	.st24{fill:#EBF3F7;}
	.st25{fill:#ECF5F9;}
	.st26{opacity:0.3;}
	.st27{opacity:0.41;fill:#FFFFFF;}
	.st28{opacity:0.4;fill:#FFFFFF;}
	.st29{fill:#060505;}
	.st30{fill:#FDD09F;}
	.st31{fill:#C9A67E;}
	.st32{fill:#120F0B;}
	.st33{fill:#0C0A07;}
	.st34{display:none;}
	.st35{display:inline;}
	.st36{fill:url(#SVGID_1_);}
	.st37{fill:url(#SVGID_2_);}
	.st38{fill:#FB9017;}
	.st39{fill:#FDD017;}
</style>
<g id="Livello_3">
	<g>
		<g>
			<path class="st0" d="M53.5,307.9c-1-0.5-1.6-1.3-1.6-2.5c0-21-0.6-42.1-0.5-63.1c0.1-19.9,0.6-39.7,2.2-59.6
				c1.4-17.7,3.6-35.4,7.9-52.7c2-8,4.5-15.9,7.9-23.5c0.4-0.9,0.1-2,0.9-2.8c0.3-0.4-0.3-0.5-0.5-0.6c-6.5-4.4-10.4-10.5-11.8-18.2
				c-0.8-4.6-0.1-8.9,2.7-12.8c2.5-3.5,6-4.8,10.1-5.1c7.2-0.5,12.7,2.6,17.3,7.8c1.5,1.7,2.8,3.6,4.1,5.5c0.4,0.5,0.6,0.5,1.1,0.2
				c13.4-7.8,28-12.2,43.4-14.3c8.1-1.1,16.3-2.1,24.6-2.2c22.4-0.3,44.2,2.9,64.8,12.1c3.9,1.7,7.6,3.6,11.3,5.8
				c0.7,0.4,1,0.3,1.5-0.3c2.2-3.1,4.6-6,7.7-8.3c5-3.8,10.7-5.2,16.8-3.8c7,1.6,11.4,8.6,10.5,16c-0.8,6.2-3.9,11.4-7.4,16.4
				c-0.8,1.1-1.7,2.2-2.6,3.3c-0.5,0.5-0.6,1-0.3,1.7c5.2,14,8.3,28.4,10.5,43.1c3.5,23.3,4.6,46.8,4.9,70.3
				c0.2,18.5,0.9,36.9,0.9,55.4c0,9.9-0.2,19.7-1.1,29.6c-0.1,1.2-0.6,2-1.6,2.6c-0.4,0-0.8,0-1.2,0c-0.9-0.2-1.6-0.6-1.7-1.6
				c-0.2-2.2,0.1-4.3,0.3-6.5c0.2-2.2,0.3-4.3,0.3-6.5c0.5-12,0.4-24,0.2-36c0-3.9,0-7.8-0.2-11.7c-0.3-8.5-0.4-17.1-0.5-25.6
				c-0.1-3.6,0-7.3-0.2-10.9c-0.3-6.1-0.4-12.2-0.7-18.3c-0.8-13.1-1.9-26.1-3.8-39.1c-2.1-14.3-5.2-28.3-9.9-42
				c-1.3-3.8-3.6-6.8-6.3-9.6c-6.3-6.4-13.4-11.6-21.3-15.8c-13.3-7.2-27.6-11.5-42.6-13.8c-4.9-0.7-9.9-1.2-14.9-1.5
				c-5.6-0.3-11.3-0.2-16.9-0.2c-3.6,0-7.2,0.4-10.7,0.9c-5.1,0.7-10.3,0.9-15.3,1.9c-10.8,2.1-21.4,5.2-31.2,10.2
				C94.1,85,88.3,89,83.5,94.2c-2.7,3-5.3,6.1-7.6,9.4c-1.8,2.7-2.9,5.9-4.1,8.9c-5.3,13.6-8.3,27.9-10.5,42.3
				c-0.9,6.2-1.7,12.5-2.3,18.8c-0.4,4.3-0.8,8.5-1.1,12.8c-0.5,6.1-0.7,12.2-1.1,18.3c-0.1,2.1-0.2,4.2-0.2,6.3
				c0,4.2-0.2,8.4-0.3,12.6c-0.4,14.7-0.2,29.4-0.1,44.1c0,6.2-0.1,12.5,0.2,18.7c0.3,6.4,0.1,12.8,0.2,19.2
				c-0.1,1.1-0.7,1.8-1.8,2.1C54.3,307.9,53.9,307.9,53.5,307.9z"/>
			<path class="st1" d="M274.3,306.4c-0.2-0.5-0.4-1-1.2-0.7c-0.3,0.1-0.6,0-1,0c-71.5,0-142.9,0-214.4,0c-0.5,0-1.1-0.2-1.6,0.2
				c-0.1-21.2-0.6-42.3-0.5-63.5c0.1-16.8,0.4-33.6,1.5-50.3c1.2-18.3,3-36.6,6.9-54.6c2.4-11.3,5.6-22.4,10.8-32.8
				c1-1.9,2.3-3.5,3.6-5.2c3.9-5,8.3-9.5,13.5-13.2c7.5-5.1,15.7-8.6,24.3-11.3c9.1-2.9,18.4-4.4,27.8-5.5c9.2-1,18.3-1.5,27.5-1.1
				c20.3,0.8,39.9,4.8,58.1,14.1c10.5,5.4,19.9,12.2,27.6,21.4c0.7,0.8,1.2,1.7,1.5,2.7c4.6,12.1,7.6,24.6,9.8,37.3
				c3.1,18,4.6,36.2,5.3,54.4c0.7,19,0.8,38,1.2,57c0.3,14.2,0.3,28.3-0.3,42.5C274.7,300.6,274.2,303.5,274.3,306.4z"/>
			<path class="st2" d="M257.3,84.9c0.4-1.3,0.8-2.6,1.2-3.8c0.3-0.9,0-1.6-0.9-1.9c-0.9-0.2-1.4,0.3-1.6,1.1
				c-0.6,2.2-1.3,4.3-2.5,6.3c-1.6-0.1-3.1-0.3-3.9-1.9c-0.5-1-0.6-2.2-0.4-3.3c0.3-2,1.2-3.9,2.3-5.6c-0.2,0-0.7,0.4-0.8-0.2
				c4.4-2.6,9-3.4,13.8-1.3c3.8,1.7,5.9,6.4,5.1,11.2c-0.8,4.5-2.8,8.4-5.4,12.1c-1.4-0.1-2.5-0.7-3.4-1.7c-1.1-1.2-1.2-2.6-0.6-4.1
				c1.1,0,2.2,0,3.3,0c1,0,1.7-0.2,1.7-1.3c0-1.1-0.8-1.4-1.7-1.3c-0.2,0-0.5,0-0.7,0c-0.2-0.2-0.7,0-0.7-0.3
				c-0.1-0.7,0.6-1,1.1-1.5c-0.8,0-1.6,0-2.3,0c-1.2,0-2.2-0.4-3-1.3C257.4,85.8,257.1,85.5,257.3,84.9z"/>
			<path class="st2" d="M64,74.8c1.5-2.6,4-3.3,6.7-3.6c4.8-0.5,8.9,1.2,12.4,4.5c1.8,1.6,3.2,3.5,4.5,5.5c-0.8,0.2-1,1-1.4,1.5
				c-0.8,1.1-2.3,1.3-3.5,0.4c-0.7-0.5-1.4-1.1-1.7-1.9c-0.3-0.8-0.7-0.9-1.3-0.4c-0.4-0.7-0.9-1.2-1.7-0.9c-0.8,0.3-1,1-0.9,1.8
				c0.3,0.9,0,1.3-1,1.1c-0.3,0-0.6,0-0.9,0c-1.6,0.1-1.7,0.2-0.9,1.6c0.2,0.3,0.2,0.3-0.1,0.7c-0.9-0.4-1.7-0.7-2.6-1.2
				c-1.1-0.6-1.9-0.4-2.5,0.7c-2-0.9-3.1-2.5-3.9-4.4C64.5,78.5,64.4,76.7,64,74.8z"/>
			<path class="st3" d="M64,74.8c0.9,0.4,0.5,1.2,0.5,1.8c0.4,3.3,1.8,6,4.5,8c0,0.9,0.5,1.3,1.3,1.7c2.8,1.3,5.6,2.6,8,4.5
				c0.9,0.7,1,1.1,0.1,2c-1.9,2-3.6,4.2-5.2,6.4c-0.4,0.6-0.7,0.6-1.2,0.2c-6.3-4.4-9.9-10.4-10.1-18.2C61.9,79,62.5,76.7,64,74.8z"
				/>
			<path class="st3" d="M250.6,75.6c0.6,0.4,0.8-0.3,1.3-0.4c0.1,0.4-0.2,0.6-0.3,0.9c-1.2,2-2.2,4.1-2.2,6.5c0,2.2,1,3.3,3.2,3.5
				c0.4,0,0.6,0.3,0.9,0.5c-0.6,1.5-1.6,2.8-2.6,4.2c-0.3,0.4-0.5,0.3-0.8,0c-2.5-2.1-5.1-4-7.8-5.8c-0.4-0.2-0.5-0.4-0.2-0.8
				c2.2-2.9,4.5-5.8,7.5-8C249.9,76,250.3,75.8,250.6,75.6z"/>
			<path class="st3" d="M260,91.9c0,1.6-0.3,3.2,1.3,4.3c0.6,0.4,1.1,0.7,1.8,0.9c0.4,0.1,0.7,0.2,1,0.5c-0.6,1.2-1.5,2.2-2.3,3.2
				c-0.3,0.4-0.4,0.5-0.9,0.2c-0.8-0.5-1.5-1.2-2.1-1.9c-1.8-2-3.7-3.9-5.8-5.9C255.2,91.8,257.5,91.8,260,91.9z"/>
			<path class="st3" d="M79.7,80.8c0.3-0.3,0.2-0.9,0.8-1.1c0.6,1,1.1,2.1,2,2.9c1.5,1.4,3.1,1.2,3.9-0.7c0.3-0.7,0.6-0.9,1.2-0.7
				c1.6,1.9,1.6,1.9-0.3,3.3c-1.7,1.3-3.4,2.7-4.9,4.2c-0.6,0.6-0.8,0.4-1-0.3C80.5,86,80,83.5,79.7,80.8z"/>
			<path class="st3" d="M257.3,84.9c0.6,1.5,1.7,2.1,3.2,2.2c1,0.1,2,0,3.2,0c-0.3,0.7-0.9,0.9-1.4,1.3c-0.6,0.6-0.1,0.6,0.2,0.8
				c-2.5,0-5-0.2-7.6,0.3C256,87.9,256.6,86.4,257.3,84.9z"/>
			<path class="st3" d="M74.1,85.2c0.1-0.7-0.5-1-0.8-1.5c-0.4-0.5-0.3-0.8,0.3-0.9c0.8-0.3,1.7-0.4,2.6-0.2c0.8,0.1,1-0.1,0.9-0.8
				c0.4,1.9,0.8,3.7,1.2,5.7C76.8,86.7,75.4,85.9,74.1,85.2z"/>
			<path class="st4" d="M212.8,304.3c-3.8,0-7.7-0.1-11.5,0c-17.4,0.5-34.7-0.1-52.1,0.3c-16.7,0.3-33.3,0-50,0.2
				c-1.6,0-1.6,0-1.6-1.5c0.2-11.7,2.3-22.9,7-33.6c2.7-6.2,6.2-11.8,10.6-16.9c6.2-7.1,13.5-12.8,22-16.7
				c5.3-2.4,10.8-3.9,16.5-4.9c5-0.8,10-1.2,15-0.9c9.7,0.5,18.9,2.8,27.3,7.9c5.2,3.2,9.3,7.4,12.8,12.3c4.1,5.8,7.4,11.9,9.5,18.7
				c1.1,3.5,1.6,7.2,2.4,10.8c1.2,5.1,2.7,10.2,3.9,15.4c0.6,2.5,1.2,5.1,1.2,7.8c0,0.9-0.2,1.2-1.2,1.2
				C220.7,304.2,216.7,304.3,212.8,304.3C212.8,304.3,212.8,304.3,212.8,304.3z"/>
			<path class="st0" d="M143.1,188.1c-2.5-3.4-2.5-7.1-1.4-10.9c1.4-4.7,4-8.5,8-11.3c0.3-0.2,0.7-0.4,0.5-1c-0.8-3,0.5-5.2,2.9-6.9
				c2.6-1.9,5.6-2.7,8.7-3.2c4.4-0.7,8.7-0.1,12.8,1.5c1.3,0.5,2.4,1.2,3.4,2.2c0.9,1,1.7,2.1,1.6,3.5c-0.1,1.5,0.6,2,1.8,2.7
				c5.3,3,8.7,7.4,9.8,13.5c0.5,3.1-0.4,5.9-2.3,8.4c-0.5,1.4-1.8,2-3,2.6c-1.7,0.7-3.4,1.1-5.3,0.9c-1-0.1-1.3,0.3-1.4,1.2
				c-0.1,1.5-0.1,3-0.3,4.4c-0.1,0.7-0.2,1.4-0.6,2c-0.4,1.2-0.7,2.4-1.1,3.5c-0.6,1.7-1.7,3-3.2,3.9c-0.2,0.4-0.5,0.6-0.9,0.7
				c-4.5,1.2-9,1.7-13.5,0c-0.6-0.2-1.1-0.5-1.4-1c-2.5-1.8-3.7-4.5-4.3-7.4c-0.6-1.3-0.6-2.7-0.6-4.1c0-1.4,0-1.4-1.4-1.3
				c-2.8,0.1-5.3-0.6-7.6-2.2C143.8,189.4,143.2,189,143.1,188.1z"/>
			<path class="st3" d="M178.4,197.7c0.3-2.5,0.6-5,0.7-7.5c0-0.6,0.3-0.6,0.7-0.6c3.5,0.5,6.6-0.3,9.1-3c0.4,0.6,0.1,1.2-0.2,1.7
				c-1.1,1.9-2.6,3.4-4.8,3.8c-1.9,0.4-3.1,1.6-4,3.2C179.5,196.2,179.4,197.2,178.4,197.7z"/>
			<path class="st3" d="M143.1,188.1c2.7,2.9,6,4,9.9,3.5c0.5-0.1,0.8-0.1,0.7,0.5c-0.1,1.8,0.2,3.6,0.3,5.3c-0.3,0.3-0.5,0.5-0.8,0
				c-0.9-1.9-2.4-2.9-4.4-3.3c-3.2-0.7-4.7-3.3-6.2-5.8c-0.1-0.1-0.2-0.3,0.1-0.3C142.8,188,143,188.1,143.1,188.1z"/>
			<path class="st5" d="M158.3,204.9c5.2,2.7,10.5,2.1,15.8,0.3c0.3,0.6-0.2,0.8-0.6,1c-2.7,1.2-5.5,1.9-8.6,1.5
				c-2.2-0.3-4.3-0.7-6.2-1.9C158.4,205.6,158,205.4,158.3,204.9z"/>
			<path class="st6" d="M166.5,174.5c4.4-0.5,8-2.3,10.8-5.8c0.6-0.7,1-0.9,1.9-0.5c4.1,2.2,6.8,5.5,7.8,10.1c0.4,1.8,0.2,3.5-0.9,5
				c-1,1.4-2.3,2.1-3.9,2.1c-1.9,0.1-3.8-0.4-5.7-0.9c-2.3-0.6-4.5-1-6.8-1.1c-3.2-0.5-6.5-0.3-9.8-0.3c-1.2,0-2.4-0.1-3.5-0.5
				c-1.8-0.6-2.3-1.8-1.4-3.4c1-1.8,2.5-3.1,4.4-3.8c2.1-0.8,4.3-0.9,6.5-0.9C166,174.6,166.2,174.6,166.5,174.5z"/>
			<path class="st7" d="M166.5,174.5c-1.9,0.6-3.9,0.4-5.9,0.9c-2.4,0.6-4.2,1.8-5.4,4c-0.9,1.5-0.5,2.5,1.1,3
				c1,0.3,2.1,0.4,3.2,0.5c3.2,0.1,6.4-0.3,9.5,0.5c0.2,0,0.4,0.1,0.6,0.2c-5.2-0.3-10,1.5-14.7,3.2c-1.9,0.7-3.8,1-5.7,0.3
				c-3-0.9-4.3-3.3-3.7-7c0.7-4.4,3-7.9,6.6-10.6c0.4-0.3,0.7-0.5,1.2,0c3.6,3.4,7.9,5,12.9,4.9
				C166.2,174.4,166.3,174.4,166.5,174.5z"/>
			<path class="st8" d="M167.4,159.1c2.4,0.2,4.7,0.6,6.8,1.9c1.4,0.9,1.6,1.6,0.8,3.1c-1.4,2.9-3.7,4.8-7,5.5
				c-2.5,0.3-4.4-1.1-6.3-2.4c-0.3-0.2-0.6-0.5-0.9-0.8c-2.3-2.5-1.5-5.8,1.7-7C164.3,158.8,165.8,158.9,167.4,159.1z"/>
			<path class="st9" d="M174.2,188.6c0.5,0,0.7,0.2,0.7,0.7c-0.1,3.1-0.2,6.1-1.1,9.1c-0.8,2.8-2.5,4-5.4,3.8
				c-0.4,0-0.5-0.1-0.5-0.5c0.4-2.9-0.2-5.7-0.3-8.6C168.6,190.9,171.7,187.9,174.2,188.6z"/>
			<path class="st10" d="M167.4,159.1c-1.7,0.1-3.5-0.3-5.1,0.9c-1.3,1-2.5,2-2.4,3.8c0,1,0.6,1.7,1.1,2.3c1.9,2,4.2,3.3,7.1,3.6
				c-3.9,1.1-7.4,0-10.7-2.2c-1.2-0.8-2.2-1.8-2.9-3.1c-0.5-0.8-0.3-1.5,0.3-2.2c0.7-0.8,1.6-1.3,2.6-1.7c3-1.3,6.1-1.7,9.3-1.6
				C167,158.9,167.2,158.9,167.4,159.1z"/>
			<path class="st11" d="M162.6,202c-1.8-0.3-3-1.4-3.7-3c-1.1-2.7-0.9-5.6-0.9-8.4c0-0.4,0.3-0.5,0.6-0.6c1.7-0.6,3.4-1.2,5.1-1.6
				c0.5-0.1,0.8-0.1,0.8,0.6c0,1,0.1,2.1,0.2,3.1c-2.4,1.4-2.6,3.8-2.6,6.2c0,0.9,0.1,1.9,0.5,2.8
				C162.8,201.3,162.9,201.7,162.6,202z"/>
			<path class="st12" d="M162.6,202c-0.7-1.9-1-3.8-0.7-5.8c0.2-1.3,0.6-2.5,1.4-3.5c0.4-0.4,0.7-1,1.5-0.7c0.3,3,0.9,5.9,0.6,8.9
				c-0.1,1.6-0.1,1.6-1.7,1.4C163.3,202.2,163,202.1,162.6,202z"/>
			<path class="st13" d="M174.2,188.6c-2.3,0.1-3.9,1.3-5.3,3.1c-0.4,0.5-0.7,1.2-1.3,1.6c-0.4-1.5-0.4-3.1-0.5-4.7
				c0-0.6,0.3-0.7,0.7-0.7C170,187.8,172.1,187.8,174.2,188.6z"/>
			<path class="st14" d="M173.4,164.5c0,0.6-0.1,1.1-0.8,1.2c-0.6,0.1-0.9-0.3-1-0.8c-0.3-1.2-0.8-2.1-2.1-2.6
				c-0.6-0.2-0.7-0.8-0.5-1.3c0.2-0.6,0.7-0.5,1.2-0.4C171.9,161,173.4,163,173.4,164.5z"/>
		</g>
		<path class="st15" d="M52.6,307.9C22,267,22,209.1,22,209.1l-13.4-4.6L36,177.2c0.4,12.6,9.4,33.7,9.4,33.7H33.7
			c-3.6,36.8,29.9,95.2,29.9,95.2"/>
		<g>
			<g>
				<g>
					<path class="st15" d="M124.8,77.4c0,0-22.5-28.6-18-41.5c4.4-12.9,8.7-22.1,8.7-22.1s-34.3,8.5-33.9,24.2s0,28.9,0,28.9
						l3.7,19.1l9.3,12.3L124.8,77.4z"/>
					<path class="st15" d="M81.6,41.9c0,0,11.5,10,25.9,3.1"/>
					<path class="st15" d="M81.3,71.4c0,0,19.8,8.6,36.5-6.9"/>
				</g>
				<path class="st16" d="M107.6,89.3L90.3,36.6L92.9,23c0,0-25.8,14-1.9,72.9L107.6,89.3z"/>
			</g>
			<g>
				<g>
					<path class="st15" d="M205.8,80.8c0,0,22.5-28.6,18-41.5c-4.4-12.9-8.7-22.1-8.7-22.1s34.3,8.5,33.9,24.2s0,28.9,0,28.9
						l-3.7,19.1l-9.3,12.3L205.8,80.8z"/>
					<path class="st15" d="M249,45.3c0,0-11.5,10-25.9,3.1"/>
					<path class="st15" d="M249.3,74.8c0,0-19.8,8.6-36.5-6.9"/>
				</g>
				<path class="st16" d="M223,92.7L240.3,40l-2.6-13.7c0,0,25.8,14,1.9,72.9L223,92.7z"/>
			</g>
		</g>
		<g>
			<path class="st17" d="M190.1,129.6c-0.2,2.8-0.4,5.6-0.2,8.4c1.3,21.3,11.5,36.8,31.2,45.5c11.8,5.2,24.1,6.5,36.8,3.8
				c5.5-1.2,10.3-3.8,14.4-7.7c0.4-0.4,0.8-0.7,1.2-1c-0.5,1.8-1.9,3-3.2,4.2c-3.6,3.2-7.8,5.6-12.5,7.2c-3.3,1.1-6.6,1.7-10,2.1
				c-2.4,0.2-4.9,0.2-7.3,0.2c-4.7-0.1-9.2-1-13.7-2.3c-3.8-1.1-7.4-2.4-11-4.1c-8-3.9-15-9.1-20.2-16.4c-3.6-5.2-5.9-10.9-6.7-17.3
				c-0.2-1.9,0.2-3.7,0.2-5.6c0.1-1.9,0.1-3.7-0.1-5.6c-0.2-1.7-0.2-3.5-0.1-5.3c0.1-1.8,0.4-3.5,0.7-5.3
				C189.7,130,189.7,129.7,190.1,129.6z"/>
			<path class="st18" d="M190.3,128.4c0.1,0.2,0.1,0.4-0.1,0.5C189.8,128.7,190,128.5,190.3,128.4z"/>
			<path class="st9" d="M107.2,91.2c8.5,0.6,16.1,3.5,22.7,8.9c9,7.4,13.9,17.2,15.4,28.7c1.7,12.7-1,24.4-8.5,34.8
				c-6.4,8.9-15.2,14.6-25.8,17.6c-0.3-0.4-0.8-0.2-1.2-0.2c-2.1-0.1-4.3,0.1-6.4-0.2c-4.5-0.6-8.8-1.9-12.9-3.8
				c-4.4-2-8.4-4.6-12.1-7.6c-3.1-2.5-6.1-5.3-8.6-8.4c-2.8-3.6-4.5-7.6-5.8-11.9c-1.4-4.6-2.2-9.3-1.9-14.2
				c0.2-3.7,0.7-7.3,1.7-10.8c1.9-6.5,4.9-12.5,9.4-17.6c5.4-6.2,12.4-10,20.3-11.9c4.1-1,8.4-1.5,12.5-2.6
				C106.4,91.7,107,91.8,107.2,91.2z M77.4,126c-4.2,0-8.7,2.3-11.2,5.8c-1.3,1.8-2,3.8-1.7,6.1c0.5,4.7,3.1,8.1,7.4,10
				c4.9,2.2,9.7,0.6,12.5-4c1.7-2.8,2.4-5.8,2.1-9C86.1,129.4,82.5,126,77.4,126z"/>
			<path class="st19" d="M107.2,91.2c-0.2,0.5-0.8,0.5-1.2,0.6c-4.1,1.1-8.3,1.6-12.5,2.6c-8,1.9-14.9,5.7-20.3,11.9
				c-4.5,5.1-7.5,11-9.4,17.6c-1,3.5-1.5,7.1-1.7,10.8c-0.3,4.9,0.6,9.5,1.9,14.2c1.3,4.3,3,8.4,5.8,11.9c2.5,3.2,5.5,5.9,8.6,8.4
				c3.7,3,7.7,5.6,12.1,7.6c4.1,1.9,8.4,3.2,12.9,3.8c2.2,0.3,4.3,0.1,6.4,0.2c0.4,0,0.9-0.2,1.2,0.2c-3.3,1.2-6.8,1.7-10.3,2.2
				c-1,0.1-2.1,0.2-3.1,0.2c-1.7-0.5-3.5-0.1-5.3-0.2c-0.6,0-1.2-0.2-1.7,0.2c-7.5-0.4-14.4-2.5-20-7.9
				c-11.6-11.3-16.9-25.2-16.3-41.3c0.4-8.8,2.9-17,7.8-24.3c7-10.4,17-16,29.2-18.2c4.8-0.8,9.7-1.2,14.5-0.9
				C106.4,91.1,106.8,91.2,107.2,91.2z"/>
			<path class="st20" d="M90.6,183.5c0.5-0.5,1.1-0.3,1.7-0.2c1.8,0.1,3.5-0.3,5.3,0.2C95.3,183.8,93,183.8,90.6,183.5z"/>
			<path class="st9" d="M242.2,91.8c4.3,0.3,8.6,0.9,12.8,2.3c15.9,5.1,25.8,15.9,29.3,32c4.3,19.4-0.9,36.4-15.3,50.4
				c-1.9,1.8-3.9,3.5-6.4,4.5c-0.1-0.3-0.4-0.3-0.6-0.3c-2.8,0.5-5.6,0.7-8.4,1c-3.4,0.3-6.8,0.4-10.1-0.1c-6.8-1.1-13-3.7-18.7-7.4
				c-3.5-2.3-6.8-4.8-9.9-7.7c-3.3-3-6.4-6.2-8.3-10.2c-3.1-6.4-5-13.1-4.9-20.3c0.1-4.4,0.7-8.6,2-12.8c1.1-3.4,2.6-6.7,4.3-9.8
				c3.6-6.5,8.6-11.6,15.2-15.1c5.6-3,11.6-4.7,17.7-5.9C241.3,92.2,241.9,92.2,242.2,91.8z M270.3,120.1c0-5.8-3.3-9.8-8.2-10.1
				c-5.3-0.3-9.6,1.8-12.5,6.3c-2.8,4.3-1.4,10,2.9,12.7c3.8,2.4,8,2.7,12,0.6C268.5,127.5,270,123.8,270.3,120.1z"/>
			<path class="st19" d="M242.2,91.8c-0.4,0.5-0.9,0.5-1.4,0.6c-6.1,1.3-12.1,3-17.7,5.9c-6.6,3.5-11.6,8.6-15.2,15.1
				c-1.7,3.1-3.2,6.4-4.3,9.8c-1.3,4.2-1.9,8.4-2,12.8c-0.2,7.2,1.8,13.9,4.9,20.3c2,4,5,7.2,8.3,10.2c3.1,2.8,6.4,5.4,9.9,7.7
				c5.7,3.7,11.9,6.4,18.7,7.4c3.3,0.5,6.7,0.4,10.1,0.1c2.8-0.2,5.6-0.5,8.4-1c0.2,0,0.5,0,0.6,0.3c-2.9,1.6-6,2.4-9.2,2.8
				c-14.8,1.8-28.5-1-40.6-9.9c-9.6-7.1-15.4-16.7-17.6-28.4c-2.4-12.7-0.4-24.7,6.7-35.5c7.5-11.4,18.4-17.1,31.8-18.2
				C236.6,91.4,239.4,91.3,242.2,91.8z"/>
			<path class="st21" d="M150.2,135.5c-0.3,15.7-5.9,29.1-18.1,39.5c-7.8,6.6-16.9,10.3-26.9,12.1c-7.4,1.3-14.8,1.4-22.2-0.1
				c-7.7-1.5-13.7-5.7-18.7-11.5c-10.8-12.3-15.5-26.8-14.3-43c1-13.3,6.2-24.7,16.3-33.7c6.7-5.9,14.7-9.4,23.4-11
				c6.5-1.2,13-1.7,19.6-0.8c17.3,2.4,29.5,11.7,36.6,27.6C149,121.2,150.2,128.2,150.2,135.5z M97.6,183.5c1-0.1,2.1-0.1,3.1-0.2
				c3.5-0.4,7-0.9,10.3-2.2c10.6-2.9,19.3-8.6,25.8-17.6c7.5-10.4,10.2-22.1,8.5-34.8c-1.5-11.5-6.4-21.2-15.4-28.7
				c-6.6-5.4-14.2-8.3-22.7-8.9c-0.4-0.1-0.8-0.1-1.2-0.2c-4.9-0.4-9.7,0-14.5,0.9c-12.2,2.1-22.2,7.8-29.2,18.2
				c-4.9,7.3-7.5,15.5-7.8,24.3c-0.7,16.1,4.6,29.9,16.3,41.3c5.6,5.4,12.4,7.5,20,7.9C93,183.8,95.3,183.8,97.6,183.5z"/>
			<path class="st22" d="M190.1,129.6c0-0.2,0-0.5,0.1-0.7c0.2-0.1,0.2-0.3,0.1-0.5c1.4-8.9,4.5-17.1,10.2-24.2
				c7.4-9.3,17.1-14.8,28.9-16.5c11.2-1.6,22.2-0.4,32.6,4.2c14.4,6.4,23.2,17.6,26.6,32.7c4.5,20.1-0.4,37.9-14.5,53
				c-0.2,0.3-0.5,0.5-0.7,0.8c-0.4,0.3-0.8,0.7-1.2,1c-4.1,3.9-8.8,6.6-14.4,7.7c-12.7,2.7-25,1.4-36.8-3.8
				c-19.7-8.7-29.8-24.2-31.2-45.5C189.7,135.2,189.9,132.4,190.1,129.6z M242.2,91.8c-2.8-0.4-5.7-0.3-8.5-0.1
				c-13.5,1.1-24.4,6.9-31.8,18.2c-7.1,10.8-9.1,22.8-6.7,35.5c2.2,11.7,8,21.3,17.6,28.4c12.1,8.9,25.9,11.7,40.6,9.9
				c3.2-0.4,6.3-1.2,9.2-2.8c2.5-0.9,4.6-2.6,6.4-4.5c14.4-14,19.5-31,15.3-50.4c-3.5-16.1-13.4-27-29.3-32
				C250.8,92.7,246.5,92.1,242.2,91.8z"/>
			<path class="st23" d="M77.4,126c5.1,0,8.7,3.5,9.1,8.7c0.3,3.2-0.4,6.3-2.1,9c-2.8,4.6-7.6,6.2-12.5,4c-4.3-1.9-6.8-5.2-7.4-10
				c-0.3-2.2,0.4-4.3,1.7-6.1C68.6,128.2,73.1,125.9,77.4,126z M72.5,136.2c1.7,0,3.1-1.3,3.1-3c0-1.6-1.4-3-3-3
				c-1.7,0-3.1,1.3-3.1,3C69.4,134.8,70.8,136.2,72.5,136.2z"/>
			<path class="st23" d="M270.3,120.1c-0.2,3.6-1.8,7.3-5.8,9.4c-4,2.1-8.1,1.8-12-0.6c-4.3-2.7-5.7-8.4-2.9-12.7
				c2.9-4.5,7.2-6.6,12.5-6.3C266.9,110.3,270.3,114.3,270.3,120.1z M259.2,115.3c0-1.7-1.3-3-3.1-3c-1.7,0-3,1.3-3,3
				c0,1.7,1.3,3,3.1,3C257.9,118.3,259.2,117,259.2,115.3z"/>
			<path class="st24" d="M72.5,136.2c-1.7,0-3.1-1.4-3-3c0-1.6,1.5-3,3.1-3c1.6,0,3,1.4,3,3C75.5,134.8,74.1,136.2,72.5,136.2z"/>
			<path class="st25" d="M259.2,115.3c0,1.6-1.3,2.9-3,3c-1.7,0-3.1-1.3-3.1-3c0-1.7,1.3-2.9,3-3
				C257.9,112.3,259.2,113.6,259.2,115.3z"/>
		</g>
		<path class="st26" d="M58.4,306.4c0,0-33.4-43.9-31.5-102.5l8.1-25.7L8.5,203.6l-0.9,0.3l14.3,4.3c0,0,6,80.9,29.5,98.2l6.9,0.9"
			/>
		<g>
			<g>
				<path class="st15" d="M281.6,241.8c5.3-8.1,10.7-16.1,16-24.2c6.2-9.4,12.4-18.8,18.7-28.2c1-1.5,1.9-3,3-4.7
					c-0.6,0-0.8,0.3-1.1,0.5c-3.9,3.2-7.8,6.4-11.7,9.6c-10.1,8.3-20.2,16.6-30.3,24.9c-0.4,0.4-0.8,0.7-1.4,0.3
					c-2.8-1.7-5.7-3.4-8.6-5c-0.9-0.5-0.9-0.8-0.3-1.6c4.8-6.5,9.5-13.2,14.2-19.8c8.9-12.2,17.6-24.5,26.4-36.8
					c0.4-0.6,0.8-1.1,1.2-1.7c0.2-0.2,0.3-0.5,0.7-1c-0.4,0.2-0.6,0.2-0.6,0.3c-10.8,8.7-21.6,17.5-32.5,26.3
					c-8,6.4-15.9,12.9-23.9,19.4c-0.7,0.5-1,0.6-1.5-0.2c-1.7-2.8-3.5-5.5-5.4-8.2c-0.4-0.7-0.4-1.1,0.1-1.7
					c1.7-2.2,3.3-4.4,4.9-6.6c5.6-7.7,11.2-15.4,16.9-23.2c2.7-3.7,5.4-7.3,8.1-11c1-1.3,1.9-2.7,2.9-4c-0.4,0-0.7,0.1-0.9,0.3
					c-16.7,12.5-33.4,24.9-50.2,37.4c-3.1,2.3-6,4.7-9.2,6.8l-0.3,0.4c1.6,1.5,2.8,3.2,4.2,4.9c5.6,6.8,11.2,13.6,16.8,20.4
					c0.7,0.8,0.8,1.2,0,2.1c-5,5.5-9.9,11.1-14.8,16.7c-5,5.7-10,11.3-15,17c-5,5.6-9.9,11.3-14.9,16.9c-4.9,5.6-9.9,11.2-14.8,16.8
					c-5,5.7-10,11.4-15.1,17.1c-0.5,0.6-0.6,1.1-0.3,1.8c0.2,0.5,0.5,0.9,0.5,1.4c0.4,0.3,0.7,0.7,0.9,1.1c0.1,0.1,0.3,0.2,0.4,0.3
					c0.3,0.2,0.6,0.5,0.9,0.8c0.4-0.1,0.8-0.1,1.3,0.2c0.8,0.4,1.5,0.4,2.3-0.3c4.4-4.5,8.9-8.9,13.4-13.3
					c7.9-7.8,15.7-15.5,23.6-23.3c8.2-8,16.3-16.1,24.5-24.1c6.3-6.2,12.6-12.4,18.8-18.6c0.4-0.4,0.7-0.6,1.3-0.2
					c3.9,2.9,7.8,5.7,11.7,8.5c4.9,3.6,9.8,7.2,14.7,10.8c0.5,0.4,0.8,0.3,1.1-0.2C279.5,245.1,280.6,243.5,281.6,241.8z"/>
			</g>
			<path class="st27" d="M257.1,169c-1.5,2.1-33,18.4-33,18.4l47.3-38.2L257.1,169z"/>
			<path class="st28" d="M283.8,183.7c-1.5,2.1-33,18.4-33,18.4l47.3-38.2L283.8,183.7z"/>
			<polygon class="st26" points="166.4,305.6 249.6,215.7 277.4,230.5 317.3,188 277.3,247 252,228.6 			"/>
		</g>
		<g>
			<path class="st29" d="M233.4,284.1c-7.4,0.2-14.8,1.2-22.1,2.3c-6.1,0.9-12.3,1.5-18.4,0.6c-4.8-0.7-9-2.8-11.8-6.9
				c-4-5.7-3.2-11.6,2.2-16.1c4-3.2,8.6-5.1,13.4-6.7c5.3-1.7,10.7-2.7,16.2-3.4c3.6-0.5,7-1.6,10.6-2.4c4-0.9,3.3-1.4,6.4,1.8
				c5.2,5.4,7.7,12,8.4,19.4c0.3,3,0.1,6-0.2,9c-0.2,1.8-0.8,2.3-2.6,2.4C234.8,284.1,234.1,284.1,233.4,284.1z M182.2,271.5
				c-0.6,1.4-0.3,2.7,0.3,4c1.7,3.6,4.5,5.8,8.3,6.8c5.3,1.5,10.7,1.1,16.1,0.5c5.3-0.6,10.6-1.5,15.9-2.1c3.7-0.4,7.4-0.6,11.1-0.8
				c0.4,0,1,0.2,1-0.5c0.1-1.4,0.4-2.8,0.1-4.2c-0.1-6.8-2.3-12.9-6.8-18.2c-1.3-1.5-2.6-2.3-4.6-1.4c-0.4,0.2-0.8,0.2-1.3,0.3
				c-3.1,0.7-6.2,1.8-9.3,2.1c-5.2,0.6-10.4,1.6-15.4,3.2c-4.3,1.4-8.6,3-12.2,5.9C184,268.4,182.7,269.6,182.2,271.5z"/>
			<path class="st30" d="M182.2,271.5c0.5-1.9,1.8-3.1,3.2-4.2c3.6-2.8,7.9-4.5,12.2-5.9c5-1.6,10.2-2.6,15.4-3.2
				c3.1-0.4,6.2-1.4,9.3-2.1c0.4-0.1,0.9-0.1,1.3-0.3c1.9-0.9,3.3-0.2,4.6,1.4c4.5,5.2,6.7,11.3,6.8,18.2c-1.2,0-2.4,0.3-3.5,0.7
				c-7.8,2.3-15.7,3-23.7,2.8c-4.8-0.2-9.5-0.3-14.2-1.3c-2.6-0.5-5.1-1.3-7.5-2.7C184.5,273.9,183.4,272.7,182.2,271.5z
				 M212.4,265.6c-0.2,0-0.6,0-0.9-0.1c-0.6-0.1-0.9,0.2-1,0.8c-0.1,0.6,0.2,0.9,0.8,1c1.8,0.3,3.6,0.1,5.4-0.7
				c0.6-0.3,0.7-0.7,0.5-1.3c-0.2-0.6-0.7-0.5-1.2-0.3C214.8,265.4,213.7,265.6,212.4,265.6z M219,272.5
				C219,272.5,219,272.5,219,272.5c0.4,0.1,0.9,0,1.3,0.1c0.6,0,1-0.3,1-0.9c0-0.6-0.3-1-0.9-1c-0.9,0-1.8,0-2.7-0.1
				c-0.6,0-0.9,0.3-0.9,0.8c0,0.6,0.2,1,0.9,1C218.1,272.5,218.6,272.5,219,272.5z M221.8,266.9c1.1,0,2-0.4,2.7-1.1
				c0.4-0.4,0.4-0.9,0.1-1.3c-0.4-0.5-0.8-0.3-1.1,0c-0.6,0.5-1.4,0.6-2.1,0.5c-0.5-0.1-0.9,0.1-1,0.6c-0.1,0.5,0.1,0.9,0.6,1.1
				C221.3,266.8,221.6,266.9,221.8,266.9z"/>
			<path class="st31" d="M182.2,271.5c1.2,1.2,2.3,2.4,3.8,3.3c2.4,1.3,4.9,2.1,7.5,2.7c4.7,0.9,9.4,1.1,14.2,1.3
				c8.1,0.3,16-0.5,23.7-2.8c1.1-0.3,2.3-0.7,3.5-0.7c0.3,1.4,0,2.8-0.1,4.2c0,0.7-0.6,0.5-1,0.5c-3.7,0.1-7.4,0.4-11.1,0.8
				c-5.3,0.5-10.6,1.5-15.9,2.1c-5.4,0.6-10.8,1-16.1-0.5c-3.8-1.1-6.6-3.3-8.3-6.8C181.9,274.2,181.6,272.9,182.2,271.5z"/>
			<path class="st32" d="M212.4,265.6c1.3,0,2.5-0.1,3.5-0.6c0.5-0.2,1-0.2,1.2,0.3c0.2,0.5,0.1,1-0.5,1.3c-1.7,0.7-3.5,1-5.4,0.7
				c-0.6-0.1-0.8-0.4-0.8-1c0.1-0.6,0.4-0.8,1-0.8C211.8,265.5,212.2,265.5,212.4,265.6z"/>
			<path class="st33" d="M219,272.5c-0.5,0-1,0-1.4,0c-0.6,0-0.9-0.4-0.9-1c0-0.5,0.4-0.9,0.9-0.8c0.9,0,1.8,0,2.7,0.1
				c0.6,0,1,0.4,0.9,1c0,0.6-0.4,0.9-1,0.9C219.9,272.5,219.5,272.5,219,272.5C219,272.5,219,272.5,219,272.5z"/>
			<path class="st32" d="M221.8,266.9c-0.2,0-0.5-0.1-0.8-0.2c-0.5-0.2-0.8-0.6-0.6-1.1c0.1-0.5,0.4-0.7,1-0.6
				c0.8,0.1,1.5,0.1,2.1-0.5c0.4-0.3,0.8-0.5,1.1,0c0.3,0.4,0.3,0.9-0.1,1.3C223.8,266.6,222.9,266.9,221.8,266.9z"/>
		</g>
	</g>
</g>
<g id="Livello_4" class="st34">
	<g class="st35">
		<linearGradient id="SVGID_1_" gradientUnits="userSpaceOnUse" x1="251.971" y1="121.6014" x2="251.971" y2="237.3806">
			<stop  offset="0.1173" style="stop-color:#FDD017"/>
			<stop  offset="0.1259" style="stop-color:#FDCD17"/>
			<stop  offset="0.2522" style="stop-color:#FCA717"/>
			<stop  offset="0.3837" style="stop-color:#FC8717"/>
			<stop  offset="0.5198" style="stop-color:#FB6F17"/>
			<stop  offset="0.6625" style="stop-color:#FB5E17"/>
			<stop  offset="0.8161" style="stop-color:#FB5317"/>
			<stop  offset="1" style="stop-color:#FB5017"/>
		</linearGradient>
		<path class="st36" d="M319,181.6c0.3-2.5,2.1-4.5,3.6-6.6c3.6-4.9,3.7-9.8,0.4-14.8c-0.4-0.5-1.2-1.2-0.7-1.7
			c0.6-0.7,1.7-0.1,2.4,0.1c5.4,1.7,7.7,5.3,9,9.5c0.6,2,0.5,4.1,0.5,6.2c0,1.9,0,3.8,0.1,5.6c0.1,1.3,0.7,1.8,2.2,0.8
			c1.2-0.8,2.4-1.5,4.3-1.7c-0.2,1-0.9,1.7-1.4,2.4c-1.3,2.1-1,4.7,0.8,6c2.3,1.6,6.7,2.1,9.1,1c2.5-1.2,3.4-3.4,2.6-6
			c-0.8-2.6-2.8-4.8-4.8-6.8c-0.6-0.6-1.5-1.2-1.8-2.2c2.4,0.3,4.4,1.1,6.1,2.3c6.3,4.2,9.1,9.8,9.9,16.2c0.4,3,1.2,6.1,4.5,8.1
			c2.6,1.6,4,1.7,6.3-0.2c4.4-3.6,7.5-7.8,7.2-13.1c0-0.4-0.3-0.9,0.3-1.1c0.7-0.3,1.1,0.3,1.5,0.5c0.3,0.2,0.5,0.4,0.8,0.6
			c0.4,0.4,0.9,0.8,1.5,0.5c0.5-0.3,0.4-0.9,0.2-1.4c-1.2-3.3-3.1-6.3-5.4-9.2c-1.1-1.4-2.5-2.7-3.7-4c-5.2-6.1-6.2-12.7-2.8-19.6
			c0.1-0.3,0.4-0.6,0.9-1.3c0.1,4.9,1.4,8.9,4.7,12.5c0.9,0.9,1.8,1.9,2.9,2.7c3.8,2.8,8.3,2,10.2-1.9c2-4,1.9-8-0.5-11.9
			c-1.6-2.5-3.3-5-4.4-7.8c-4.7-11.8,2.2-18.9,16.1-23.6c0.1,0,0.3,0.1,0.6,0.1c-1.6,1.7-3.2,3.3-3.9,5.4c-1.6,4.9,0.5,8.9,4.8,12.3
			c2.7,2.1,5.6,4.1,7.8,6.7c3.1,3.6,3.9,7.5,3.3,11.7c-0.3,2.5-0.5,5-0.3,7.5c0.1,0.9,0,1.8,1,2.5c0,17.7,0,35.3,0,53
			c-1.6-0.3-1.7-1.5-2.1-2.4c-1-2.3-0.5-4.8-1-7.2c-0.6-3.5-4-7.6-9.6-8.5c1.6,1.3,1.5,2.8,2,4.2c0.8,2.3,0.3,4.6-1.9,6.4
			c-1.2,1-2.5,1.8-4.4,1c-1.9-0.8-1.2-2.1-0.8-3.3c0.1-0.2,0-0.4,0-0.7c-1.9,0.3-2.8,1.4-3.7,2.5c-1.8,2.2-0.7,4.6-0.2,6.9
			c0.7,3-0.8,5.8-4.2,7.1c-3.5,1.3-9-0.2-8.5-3.9c0.2-1.8,0.4-3.6,1.1-5.3c1-2.5,0.1-4.3-2.6-5.6c-1.2-0.6-2.1-0.8-2,0.8
			c0.2,2.2-1.2,3.9-3.4,5.1c-1.7,0.9-2.5,2.2-3.2,3.6c-0.2,0.4,0.2,1.2-0.9,1.3c-0.8-0.6-0.9-1.3-0.9-2.1c0-0.6-0.1-1.4-0.9-1.6
			c-1.1-0.2-1.3,0.8-1.6,1.3c-0.8,1.6-1.2,3.2-0.8,5c0.6,2.7,2,5.3,1.7,8.2c-0.2,2.4-2.4,4-5.2,4c-2.6,0-4.4-1.6-4.6-3.9
			c-0.2-1.4,0.4-2.7,0.8-4.1c0.5-1.6,0.3-3.2-0.9-4.6c-0.3-0.4-0.8-1-1.3-0.3c-2.2,3-6.6,4.7-6.8,8.8c-0.1,2-2.1,2.7-4.5,2.5
			c-1.9-0.2-3.3-1.6-3.4-3.4c-0.1-1.4,0.8-2.4,1.5-3.5c1.8-3,1.7-5.8-1-8.5c-1.9-1.9-3.3-3.9-2-6.5c0.2-0.4,0.5-1.2-0.3-1.5
			c-0.7-0.2-1.2,0.4-1.8,0.7c-3.3,2.1-2.9,4.9-2.3,7.6c0.5,2.2-0.4,4-2.2,5.5c-1.7,1.4-4.4,1.8-5.6,0.8c-1.7-1.4-1.3-2.9,0-4.3
			c0.2-0.2,0.4-0.5,0.5-0.7c0.2-0.5,1.1-1,0.3-1.4c-0.7-0.4-1.2,0.3-1.7,0.6c-3.5,2.4-4.2,5.7-4.5,9.2c-0.2,2.5-2.5,4.3-5.8,4.2
			c-3.5,0-5.9-1.7-6.2-4.3c-0.4-3.4,1.3-6.2,3.6-8.9c2.9-3.3,3-7.6,0.1-9.9c0.1,2.1-0.5,3.9-1.8,5.6c-1.1,1.5-2.6,2.5-4.9,2
			c-2.2-0.5-2.6-2.1-2.8-3.7c-0.3-2.3,1.3-4.1,2.1-6.2c2.1-5.4-0.7-9.5-8.7-10.7c2.5,3.4,2,6.2-1.8,8.9c-3.2,2.2-4.3,5.2-3.3,8.5
			c0.4,1.3,0.2,2.6,0.3,3.9c0.1,1.4-0.9,2-2.3,2.5c-2.9,0.8-5-0.4-5-2.9c0-1.6,0.2-3.2-1.2-4.6c-0.3-0.3-0.9-0.6-1.3-0.6
			c-0.7,0-0.6,0.6-0.6,1c-0.3,2.2-1.5,4.1-2.7,6c-1.6,2.7-3.1,5.5-3,8.5c0,1.5-0.8,2.1-2.4,2.4c-1.8,0.4-2.9-0.2-3.7-1.3
			c-1-1.2-0.9-2.6-0.4-4c0.7-1.7,1.1-3.5,0.6-5.3c-0.2-0.7-0.2-1.9-1.3-1.8c-1.2,0-0.5,1.1-0.7,1.7c-0.4,1-0.9,1.9-1.6,2.8
			c-1.3,1.6-3.1,1.7-5,0.8c-2.8-1.2-3.9-3.6-2.9-6.1c0.6-1.5,1.5-2.9,2.5-4.3c2.5-3.7,1.7-6.9-2.5-9.5c-0.5-0.3-1-0.9-1.8-0.6
			c-0.8,0.3-0.5,1-0.5,1.5c0.1,2.4-1,4.2-2.9,6c-1.2,1.1-2.6,2.2-3.9,3.3c-2.6,2.1-2.7,4.9-3.6,7.4c-0.4,1.3-1.2,2.2-3,2.1
			c-2-0.1-2.2-1.3-2.3-2.6c-0.1-1.2,0-2.4,0-3.5c0-1.5-0.9-2.7-2.1-3.7c-0.3-0.2-0.6-0.6-1.1-0.4c-0.5,0.2-0.4,0.6-0.4,0.9
			c-0.8,4.9-5.5,9.3-11.4,10.4c-1.5,0.3-3,0.1-4.1-0.9c-1.1-1-0.9-2-0.1-3.1c0.7-0.9,0.5-1.7,0.4-2.9c-0.5,0.4-0.6,0.6-0.8,0.7
			c-0.8,0.8-1.6,1.5-3.1,1.1c-1.5-0.4-1.2-1.3-1.3-2.2c-0.1-1.2-0.7-2.3-1.5-3.3c-0.7-0.7-1.2-1.5-0.9-2.5c0.2-0.6,0.8-1.3-0.1-1.6
			c-0.8-0.3-1.3,0.6-1.8,1c-1.9,1.8-1.4,4.1-1.4,6.2c0,1.4-0.3,2.7-2.4,2.9c-2.1,0.2-3.7-0.3-4.5-2.1c-1.1-2.3-1.3-4.7-1.4-7.1
			c-0.2-4.6-3.4-8.1-9.1-9.7c-0.4,0.5,0.1,0.8,0.3,1.1c1.3,2.3,1.8,4.7,0.9,7.3c-0.7,2.1-2.7,3.5-4.9,3.4c-2.9-0.1-2.4-1.7-2.4-3.1
			c0-0.3,0-0.8-0.5-0.8c-0.4,0-0.8,0.3-1.1,0.5c-2.6,1.8-3.3,4-2.4,6.7c0.8,2.4,0.9,4.9-1.1,7.2c-1.8,2-4.2,2.4-6.9,2.1
			c-2.2-0.2-3.5-1.4-4.2-3.2c-1-2.4,0.6-4.5,1.2-6.7c0.5-2.2-0.5-4.3-2.9-5.4c-1.2-0.6-2-0.5-1.8,0.8c0.2,1.7-0.9,2.9-2.2,4
			c-1.1,1-2.3,1.9-3.4,2.9c-1,0.8-0.4,2.9-2,2.6c-1.2-0.2-0.9-2.2-1.2-3.3c-0.1-0.2-0.2-0.3-0.3-0.7c-3.2,3-3.4,6.2-2.1,9.6
			c0.9,2.4,1.4,4.7,0.5,7.1c-0.5,1.3-1.3,2.6-3.4,2.7c-2.2,0.1-3.8-0.5-4.9-2.1c-1.1-1.7-0.8-3.3-0.1-5c1-2.4,0.5-4.6-1.8-6.6
			c-0.5,1-1.1,1.6-1.8,2.2c-2.4,2-5.2,3.9-5.3,7.1c-0.1,1.9-1.5,2.7-3.7,2.8c-2.2,0.1-3.7-0.9-4.1-2.6c-0.3-1.1-0.2-2.1,0.5-3.2
			c2.4-3.5,3-7-0.8-10.1c-2.2-1.8-2.3-3.9-1.5-6.2c0.2-0.4,0.9-1.1,0-1.5c-0.7-0.3-1.4,0.1-1.9,0.5c-1.7,1.1-2.8,2.5-2.8,4.3
			c0,2.1,0.1,4.2,0,6.3c-0.1,1.8-3.2,4.3-5.4,4.3c-2.5,0-3.9-1.3-3.2-3.3c0.4-1.1,1-2.1,1.6-3.3c-1.2,0.1-1.9,0.6-2.6,1.1
			c-2.6,2.1-3.2,4.9-3.4,7.6c-0.2,2.8-2.2,4.7-5.1,4.9c-4.7,0.4-8.2-2.9-7-6.9c0.8-2.7,2.4-5,4.1-7.3c2-2.7,2.3-5.4-0.1-8.5
			c-0.4,2.4-0.9,4.3-2.6,5.9c-1,0.9-2.1,2.1-3.9,1.6c-1.9-0.5-3.1-1.6-3.2-3.2c-0.2-1.9,0.1-3.6,1.2-5.4c3.6-6-0.1-10.9-7.5-12
			c0-6.3,0-12.5,0-18.8c5.2,3.5,11.2,6.5,14,11.9c0.3,0.5,0.4,1.2,1.4,1.3c-0.1-3-1.5-5.7-1.3-8.7c0.2-4.2,2.5-7.4,5.8-10.4
			c1.3-1.1,2.7-2.2,4-3.3c4.1-3.7,4.3-8.4,0.6-12.4c-0.4-0.4-1.1-0.7-0.9-1.4c1.5-0.4,2.6,0.4,3.9,0.8c3.1,0.9,5.9,2.3,8.4,4
			c5.5,3.8,5.6,8.7,4,13.8c-0.6,1.9-1.6,3.8-2.7,5.6c-2,3.4-2,6.7-0.2,10.1c2.1,3.7,6.7,4.5,10.3,1.7c3.1-2.4,5.2-5.4,5.3-9
			c0-1,0.4-2,0.6-3c1.3,0.2,1.5,1,1.8,1.7c2.5,5.4,1.6,10.5-2.4,15.3c-0.4,0.5-0.9,1-1.3,1.6c-2.3,2.8-2.1,3.1,2,4.1
			c2.3,0.6,4.6,1,7.1,0.5c5-1,6.7-4.2,4-7.7c-2.8-3.6-3.1-5.8-1.2-8.8c0.5,1.2,0.8,2.3,1.4,3.4c0.7,1.3,2.1,2.4,3.9,2.1
			c2-0.3,4.1-1.2,3.7-3.1c-0.9-3.8,0.8-6.9,2.6-10.2c1.3-2.3,0.7-4.5-0.9-6.5c-0.7-0.9-1.4-1.7-2.1-2.7c5.8,0.5,10.4,4.9,11,10.4
			c0.3,2.6-0.2,5.1,0.5,7.7c0.7,2.4,2.7,4,5.1,4c1.4,0,2.2-0.2,2.3-1.6c0.5-3.3,2-6.3,5.5-8.4c1.1-0.7,1.1-1.5,1.1-2.4
			c-0.2-3.6-0.6-7.2-0.5-10.8c0.4-8.9,5.6-15.5,15.1-20.1c0.3-0.2,0.8-0.2,1.6-0.5c-2.4,4.4-3.7,8.7-3.2,13.2
			c0.4,3.6,1.4,7.1,4.8,9.8c0.1,0,0.1,0.1,0.2,0.1c2.5,2,6.7,2.5,9.1,1.2c1.9-1,2.2-3.6,0.9-6.4c-0.3-0.6-1.5-1.3-0.7-1.8
			c1-0.6,2.1-0.1,3,0.5c7.2,3.9,8.1,9.6,7,15.8c-1,5.3-0.1,10.1,4.8,14c0.4,0.3,0.9,0.6,1.4,0.9c4.6,2.2,4.5,2.2,7.2-1.5
			c0.7-0.9,1.5-1.8,2.5-3c0.8,1.5,0.3,2.8,0.5,4.1c0.1,0.8-0.3,1.9,0.9,2.2c1,0.2,2.2-0.4,2.9-1.1c4.1-3.8,6.5-8,4-13.1
			c-1.2-2.4-2.4-4.9-3.4-7.3c-2.4-5.9,1.6-12.2,9-13.6c-1,2.6-1.1,5.1,0.3,7.6c1.2,2.1,2.9,3.9,5.4,5.2c4.2,2.1,7.3,4.9,8.5,8.8
			c0.2,0.7,0.4,1.5,1.5,2.1c2.4-3.4,1.8-7,0.8-10.7c1.4-0.4,1.7,0.6,2.3,1.2c5.8,5.4,6.7,11.7,5.1,18.4c-0.8,3.4-1.1,6.9-0.9,10.4
			c0.1,1.5,0.5,1.9,2.2,0.9c4.7-2.6,7.1-7.6,5.7-12.1c-0.4-1.3-0.9-2.7-1.2-4.1c-1.2-5.1,1.2-9.5,6.7-12.3c0.4-0.2,0.9-0.3,1.4-0.5
			c0.5,0.9-0.2,1.6-0.4,2.3c-0.5,1.7-1.1,3.6,1,4.8c2.1,1.2,4.6,0.8,6.8-0.1c2.9-1.1,4.1-3.2,5.1-5.5c0.1-0.2,0.1-0.3,0.2-0.5
			c0.1-0.4,0.2-0.8,0.4-1.2c0.1-0.1,0.1-0.1,0-0.2c0-1.7,0-6.8-0.8-7.5c-0.1-0.3-1.2-3.2-2.1-4.2c-0.1,0-0.2-0.1-0.1-0.2
			c0.8-1.1,1.7-0.5,2.6-0.2c1.7,0.6,13.4,7.5,14.2,22.9c0,0.2,0,0.5,0,0.7c-0.2,0.7-0.3,1.4,0.5,2c0.3,1,0.6,2,1.1,3
			c0.8,1.8,1.8,3.5,4.7,4.2c-1.7-2.5-3.7-4.6-4.5-7.2c0.1-0.3,0.2-0.7-0.3-0.8c-0.6-0.6-0.7-1.2-0.6-1.9
			C318.4,185.9,318.4,183.8,319,181.6z M125.4,194.1c-0.3-0.8-0.6-1.7-1.7-2c-1.2-0.3-0.9,0.8-1.2,1.2c-0.6,0.8-1.4,1.1-2.4,1.4
			c-3.2,0.8-3.6,2.2-1.3,4c0.7,0.5,1.3,0.8,1.5-0.3c0.3-1.4,1.4-2.3,3.1-2.7C124.4,195.6,125.3,195.1,125.4,194.1z M379,204.6
			c-0.1,1.6,1.6,2.3,2.5,3.5c0.3,0.4-0.1,1.1,0.8,1.1c0.7,0,1.1-0.6,1.4-1.1c0.7-1.1,0.9-2.2-0.3-3.3c-0.6-0.5-1.1-1.1-1.2-1.8
			c-0.2-1.6-1.2-1-2-0.5C379.3,203.1,379,203.8,379,204.6z M170.3,204.9c0,1.6,2.2,2.6,2.9,4.2c0.1,0.2,0.7,0.1,0.8-0.1
			c0.6-0.9,1.7-1.6,1-2.8c-0.6-1-1.3-2-1.6-3c-0.4-1.9-1.5-0.8-2.2-0.3C170.6,203.2,170.3,203.9,170.3,204.9z M325.3,211
			c-0.1,0.7,0.3,1.2,1.1,1.5c0.5,0.2,1.3,0.3,1.3-0.2c0.2-1.4,1.7-2,2.5-3c0.5-0.6,0.4-1.2-0.2-1.7c-0.3-0.3-0.9-0.8-1.2-0.5
			C327.7,208.5,325.5,209.2,325.3,211z M222,204.4c-0.6-1.5,0.8-2.1,1.7-3c1-0.9,1.1-2-0.1-2.7c-1.7-1-0.8,0.9-1.6,1.1
			c-0.5,0.2-1,0.6-1.4,0.9C218.6,202.3,218.9,203.3,222,204.4z"/>
		<linearGradient id="SVGID_2_" gradientUnits="userSpaceOnUse" x1="251.9722" y1="198.4497" x2="251.9722" y2="243.2359">
			<stop  offset="0.1173" style="stop-color:#FDD017"/>
			<stop  offset="0.4566" style="stop-color:#FCBA17"/>
			<stop  offset="1" style="stop-color:#FB8F17"/>
		</linearGradient>
		<path class="st37" d="M89.1,198.6c7.4,1.1,11,6,7.5,12c-1.1,1.8-1.4,3.6-1.2,5.4c0.1,1.6,1.4,2.8,3.2,3.2c1.8,0.4,2.9-0.7,3.9-1.6
			c1.7-1.5,2.2-3.5,2.6-5.9c2.4,3.1,2.1,5.8,0.1,8.5c-1.7,2.3-3.3,4.6-4.1,7.3c-1.2,4,2.2,7.3,7,6.9c2.9-0.2,4.9-2,5.1-4.9
			c0.2-2.8,0.8-5.5,3.4-7.6c0.7-0.5,1.3-1.1,2.6-1.1c-0.6,1.2-1.2,2.2-1.6,3.3c-0.7,1.9,0.6,3.3,3.2,3.3c2.2,0,5.4-2.5,5.4-4.3
			c0.1-2.1,0-4.2,0-6.3c0-1.8,1-3.2,2.8-4.3c0.5-0.3,1.2-0.8,1.9-0.5c0.9,0.4,0.1,1,0,1.5c-0.8,2.3-0.7,4.3,1.5,6.2
			c3.8,3.2,3.2,6.7,0.8,10.1c-0.8,1.1-0.8,2.2-0.5,3.2c0.4,1.7,1.9,2.7,4.1,2.6c2.2-0.1,3.6-0.9,3.7-2.8c0.1-3.2,2.9-5,5.3-7.1
			c0.7-0.6,1.3-1.2,1.8-2.2c2.2,2,2.7,4.2,1.8,6.6c-0.7,1.7-1,3.3,0.1,5c1,1.7,2.6,2.3,4.9,2.1c2.2-0.1,2.9-1.4,3.4-2.7
			c0.9-2.4,0.4-4.8-0.5-7.1c-1.3-3.4-1.1-6.6,2.1-9.6c0.1,0.3,0.2,0.5,0.3,0.7c0.4,1.2,0,3.1,1.2,3.3c1.6,0.3,1-1.8,2-2.6
			c1.1-1,2.3-1.9,3.4-2.9c1.3-1.1,2.5-2.3,2.2-4c-0.2-1.3,0.6-1.4,1.8-0.8c2.4,1.2,3.4,3.2,2.9,5.4c-0.5,2.2-2.1,4.2-1.2,6.7
			c0.7,1.8,2,3,4.2,3.2c2.7,0.3,5.1-0.1,6.9-2.1c2-2.3,1.9-4.7,1.1-7.2c-0.9-2.7-0.2-4.9,2.4-6.7c0.3-0.2,0.7-0.5,1.1-0.5
			c0.5,0,0.5,0.5,0.5,0.8c0,1.4-0.5,3.1,2.4,3.1c2.2,0,4.2-1.3,4.9-3.4c0.9-2.5,0.4-4.9-0.9-7.3c-0.2-0.3-0.7-0.7-0.3-1.1
			c5.7,1.5,8.9,5.1,9.1,9.7c0.1,2.4,0.3,4.8,1.4,7.1c0.8,1.8,2.4,2.3,4.5,2.1c2.1-0.2,2.4-1.5,2.4-2.9c0-2.1-0.5-4.4,1.4-6.2
			c0.5-0.5,1-1.3,1.8-1c0.9,0.3,0.4,1.1,0.1,1.6c-0.4,1,0.2,1.8,0.9,2.5c0.9,1,1.4,2.1,1.5,3.3c0.1,0.9-0.2,1.8,1.3,2.2
			c1.5,0.4,2.3-0.3,3.1-1.1c0.2-0.2,0.3-0.3,0.8-0.7c0.1,1.2,0.3,2.1-0.4,2.9c-0.8,1-1,2.1,0.1,3.1c1.1,1,2.6,1.2,4.1,0.9
			c5.9-1.2,10.6-5.5,11.4-10.4c0.1-0.3-0.1-0.7,0.4-0.9c0.5-0.2,0.8,0.1,1.1,0.4c1.2,1,2.1,2.2,2.1,3.7c0,1.2-0.1,2.4,0,3.5
			c0.1,1.2,0.3,2.5,2.3,2.6c1.8,0.1,2.6-0.8,3-2.1c0.8-2.6,0.9-5.4,3.6-7.4c1.3-1.1,2.7-2.1,3.9-3.3c1.9-1.8,3-3.7,2.9-6
			c0-0.5-0.3-1.2,0.5-1.5c0.8-0.3,1.3,0.3,1.8,0.6c4.2,2.6,5,5.8,2.5,9.5c-0.9,1.4-1.8,2.8-2.5,4.3c-1,2.5,0.1,4.8,2.9,6.1
			c1.9,0.9,3.6,0.7,5-0.8c0.7-0.9,1.3-1.8,1.6-2.8c0.2-0.6-0.5-1.7,0.7-1.7c1.1,0,1.1,1.2,1.3,1.8c0.5,1.8,0.1,3.6-0.6,5.3
			c-0.5,1.4-0.7,2.8,0.4,4c0.8,1,2,1.7,3.7,1.3c1.6-0.4,2.4-0.9,2.4-2.4c-0.1-3,1.4-5.8,3-8.5c1.2-1.9,2.4-3.8,2.7-6
			c0.1-0.4-0.1-1,0.6-1c0.4,0,1,0.3,1.3,0.6c1.4,1.3,1.2,3,1.2,4.6c0,2.5,2.1,3.7,5,2.9c1.4-0.4,2.4-1.1,2.3-2.5
			c-0.1-1.3,0.1-2.6-0.3-3.9c-1-3.3,0.2-6.3,3.3-8.5c3.8-2.6,4.3-5.5,1.8-8.9c8.1,1.2,10.8,5.3,8.7,10.7c-0.8,2-2.4,3.9-2.1,6.2
			c0.2,1.6,0.6,3.1,2.8,3.7c2.3,0.5,3.7-0.4,4.9-2c1.3-1.7,2-3.5,1.8-5.6c2.9,2.3,2.8,6.7-0.1,9.9c-2.3,2.6-4,5.5-3.6,8.9
			c0.3,2.5,2.7,4.2,6.2,4.3c3.3,0,5.6-1.7,5.8-4.2c0.3-3.4,1-6.7,4.5-9.2c0.5-0.4,1.1-1,1.7-0.6c0.8,0.4-0.1,1-0.3,1.4
			c-0.1,0.3-0.3,0.5-0.5,0.7c-1.3,1.4-1.7,2.9,0,4.3c1.2,1,3.9,0.6,5.6-0.8c1.8-1.5,2.7-3.2,2.2-5.5c-0.6-2.7-1-5.6,2.3-7.6
			c0.5-0.3,1.1-0.9,1.8-0.7c0.8,0.3,0.5,1.1,0.3,1.5c-1.2,2.6,0.1,4.7,2,6.5c2.8,2.7,2.8,5.5,1,8.5c-0.7,1.1-1.6,2.1-1.5,3.5
			c0.2,1.8,1.5,3.2,3.4,3.4c2.4,0.2,4.5-0.5,4.5-2.5c0.1-4.1,4.6-5.8,6.8-8.8c0.5-0.7,1-0.1,1.3,0.3c1.2,1.4,1.4,3,0.9,4.6
			c-0.4,1.3-1,2.7-0.8,4.1c0.3,2.4,2.1,3.9,4.6,3.9c2.8,0,5-1.6,5.2-4c0.3-2.8-1.1-5.5-1.7-8.2c-0.4-1.8,0-3.4,0.8-5
			c0.3-0.6,0.5-1.6,1.6-1.3c0.8,0.2,0.9,1,0.9,1.6c0,0.8,0.1,1.5,0.9,2.1c1-0.1,0.6-0.9,0.9-1.3c0.7-1.4,1.5-2.7,3.2-3.6
			c2.2-1.2,3.6-2.8,3.4-5.1c-0.1-1.6,0.8-1.4,2-0.8c2.7,1.3,3.6,3.2,2.6,5.6c-0.7,1.7-0.8,3.5-1.1,5.3c-0.5,3.8,5,5.3,8.5,3.9
			c3.4-1.3,4.8-4.1,4.2-7.1c-0.5-2.3-1.5-4.6,0.2-6.9c0.9-1.1,1.8-2.2,3.7-2.5c0,0.3,0.1,0.5,0,0.7c-0.4,1.2-1.1,2.5,0.8,3.3
			c1.8,0.8,3.1,0,4.4-1c2.2-1.8,2.7-4.1,1.9-6.4c-0.5-1.4-0.4-2.9-2-4.2c5.6,0.9,9,5,9.6,8.5c0.4,2.4,0,4.9,1,7.2
			c0.4,0.9,0.5,2.1,2.1,2.4c0,7-0.1,13.9,0.1,20.9c0,1.4-0.4,1.7-2.1,1.7c-63.1,0-126.1,0-189.2,0c-44.1,0-88.3,0-132.4,0
			c-1.8,0-2.1-0.3-2.1-1.7c0.1-12.4,0.1-24.7,0.1-37.1c1.5-1.2,1.5-3.1,0-4.6C89.1,199.4,89.1,199,89.1,198.6z"/>
		<path class="st38" d="M89.1,199.8c1.5,1.5,1.5,3.4,0,4.6C89.1,202.9,89.1,201.3,89.1,199.8z"/>
		<path class="st38" d="M242.1,156.8c-4.3-1.8-7-6.3-4-9.5c1.4-1.5,2.2-3.5,1.6-5.7c-0.3-1.2,1.3-0.7,2-0.5c2.5,0.8,4.4,3.5,4.2,5.8
			c-0.2,1.8-0.9,3.5-2.3,5C242.3,153.5,241.7,155.1,242.1,156.8L242.1,156.8z"/>
		<path class="st38" d="M263.9,177.2c0.5-2.2-1.1-3.4-2.3-4.7c-3.3-3.4-2.8-6.6,1-8.6c1.1-0.6,1.9-0.8,1.9,0.7
			c0,1.4,0.7,2.5,1.6,3.7C269.2,172.1,268.8,173.9,263.9,177.2z"/>
		<path class="st38" d="M141.5,173.2c0.9-1.2,0.2-2-0.6-2.8c-1.1-1-2.2-1.9-3.4-2.9c-2.8-2.4-2.1-5.2,1.9-6.8
			c-0.6,2,0.6,3.2,2.5,4.1c1.2,0.6,2.2,1.3,3.1,2.2C147.7,169.8,146.1,172.8,141.5,173.2z"/>
		<path class="st38" d="M352.7,156.8c3.9,1.9,4.1,3.3,1.5,5.9c-1.4,1.3-3.6,2.3-2.9,4.6c0.1,0.4-0.5,0.4-1,0.3c-3-0.5-4.4-2.9-2.7-5
			c0.6-0.8,1.3-1.4,2.3-2C352.3,159.2,352.3,159.2,352.7,156.8z"/>
		<path class="st38" d="M175.6,148.1c1.3-0.1,2,0.4,2.8,0.8c2.1,1.1,2.4,2.2,0.6,3.5c-2.4,1.8-2.7,3.7-1,6.1c-2.3,0-4-0.7-5.3-1.9
			c-1.3-1.2-0.3-2.2,0.8-3C175.6,152,176.9,150.4,175.6,148.1z"/>
		<path class="st39" d="M304,178.8c-0.1,0.2-0.1,0.3-0.2,0.5C303.7,179,303.7,178.9,304,178.8z"/>
		<polygon class="st38" points="242.1,156.9 242.1,156.9 242.1,156.8 		"/>
		<path class="st39" d="M317,177.1"/>
		<path class="st39" d="M304.4,177.6c0,0-0.1-0.1-0.1-0.1S304.5,177.5,304.4,177.6z"/>
		<path class="st39" d="M125.4,194.1c-0.1,1-1,1.5-2,1.7c-1.8,0.4-2.8,1.2-3.1,2.7c-0.2,1.1-0.8,0.8-1.5,0.3c-2.3-1.8-1.9-3.2,1.3-4
			c1-0.3,1.9-0.6,2.4-1.4c0.3-0.4,0-1.5,1.2-1.2C124.8,192.4,125.2,193.3,125.4,194.1z"/>
		<path class="st39" d="M379,204.6c0-0.8,0.3-1.5,1.1-2c0.8-0.5,1.8-1.1,2,0.5c0.1,0.7,0.6,1.3,1.2,1.8c1.2,1,0.9,2.1,0.3,3.3
			c-0.3,0.5-0.7,1.1-1.4,1.1c-0.9,0-0.5-0.7-0.8-1.1C380.6,206.9,378.9,206.2,379,204.6z"/>
		<path class="st39" d="M170.3,204.9c0-1,0.3-1.7,0.9-2.2c0.7-0.5,1.8-1.5,2.2,0.3c0.2,1.1,1,2,1.6,3c0.7,1.2-0.4,1.9-1,2.8
			c-0.2,0.3-0.8,0.4-0.8,0.1C172.6,207.5,170.3,206.5,170.3,204.9z"/>
		<path class="st39" d="M325.3,211c0.2-1.9,2.4-2.6,3.5-3.9c0.3-0.4,0.9,0.2,1.2,0.5c0.6,0.5,0.6,1.1,0.2,1.7c-0.8,1-2.3,1.6-2.5,3
			c-0.1,0.4-0.8,0.3-1.3,0.2C325.6,212.2,325.3,211.7,325.3,211z"/>
		<path class="st39" d="M222,204.4c-3.1-1.1-3.4-2-1.4-3.7c0.4-0.3,0.9-0.7,1.4-0.9c0.8-0.2-0.1-2.1,1.6-1.1
			c1.3,0.7,1.1,1.8,0.1,2.7C222.7,202.2,221.3,202.9,222,204.4z"/>
	</g>
</g>
</svg>
